name analog
datacolumns 19
datarows 27
range 0.0 0.013000000000000001
endheader
time	ground_force_vx	ground_force_vy	ground_force_vz	ground_force_px	ground_force_py	ground_force_pz	l_ground_force_vx	l_ground_force_vy	l_ground_force_vz	l_ground_force_px	l_ground_force_py	l_ground_force_pz	ground_torque_x	ground_torque_y	ground_torque_z	l_ground_torque_x	l_ground_torque_y	l_ground_torque_z
0.0	-0.0	-0.0	-0.0	5.28924560546875	-0.8655015826225281	-740.5625610351562	-6.463930130004883	-5.399527549743652	-26.23343276977539	-34.914798736572266	16.104564666748047	76.801513671875	-0.0	-0.0	-0.0	11804.212890625	3813.01708984375	-3921.621826171875
0.0005	-0.0	-0.0	-0.0	5.315146446228027	-0.6239128112792969	-739.466796875	-6.7420196533203125	-5.350320339202881	-24.937227249145508	-34.623756408691406	15.988410949707031	75.85020446777344	-0.0	-0.0	-0.0	11838.705078125	3821.928955078125	-3956.078125
0.001	-0.0	-0.0	-0.0	5.177020072937012	-0.6008539795875549	-741.81494140625	-6.387176513671875	-5.813297271728516	-26.085420608520508	-34.64649200439453	16.273168563842773	75.36627197265625	-0.0	-0.0	-0.0	11769.724609375	4033.177734375	-3917.029541015625
0.0015	-0.0	-0.0	-0.0	4.906578063964844	-0.4083220958709717	-741.8952026367188	-6.71633768081665	-5.399236679077148	-25.89238739013672	-34.69871520996094	16.130809783935547	75.54236602783203	-0.0	-0.0	-0.0	11927.306640625	3848.08203125	-3935.075927734375
0.002	-0.0	-0.0	-0.0	5.2374587059021	-0.4083973169326782	-740.470703125	-6.412895679473877	-5.438835620880127	-27.223539352416992	-34.65058135986328	16.07828140258789	76.34590911865234	-0.0	-0.0	-0.0	11327.7763671875	3932.612060546875	-3930.19580078125
0.0025	-0.0	-0.0	-0.0	5.133426189422607	-0.4456520080566406	-741.6778564453125	-6.464446544647217	-5.461690902709961	-25.83721923828125	-34.94114303588867	15.77100658416748	76.90145874023438	-0.0	-0.0	-0.0	11864.87109375	3951.96484375	-3904.41259765625
0.003	-0.0	-0.0	-0.0	5.337730407714844	-0.8801866769790649	-742.9285278320312	-6.498595714569092	-5.313669204711914	-26.377235412597656	-35.194236755371094	16.056373596191406	75.51490020751953	-0.0	-0.0	-0.0	11874.0341796875	4066.42626953125	-3883.338134765625
0.0035	-0.0	-0.0	-0.0	4.69107723236084	-0.3084706366062164	-743.4437255859375	-6.338869571685791	-5.225496292114258	-26.288005828857425	-34.8995475769043	16.003787994384766	75.86643981933594	-0.0	-0.0	-0.0	11794.6279296875	3878.431640625	-4019.115966796875
0.004	-0.0	-0.0	-0.0	4.658448219299316	-0.1043183207511901	-742.7976684570312	-6.438897132873535	-5.277139663696289	-25.83721923828125	-35.39927673339844	16.178800582885742	76.1566162109375	-0.0	-0.0	-0.0	11901.6708984375	3773.448486328125	-3905.48193359375
0.0045000000000000005	-0.0	-0.0	-0.0	4.4605255126953125	-0.5347824096679688	-744.606689453125	-6.401991844177246	-5.501712322235107	-26.68094253540039	-34.90993881225586	16.46444320678711	76.46611022949219	-0.0	-0.0	-0.0	11903.6953125	3906.602783203125	-3874.630615234375
0.005	-0.0	-0.0	-0.0	4.308266639709473	0.330383151769638	-742.2807006835938	-6.439014434814453	-5.652587890625	-26.476621627807617	-34.825679779052734	16.427444458007812	75.4136962890625	-0.0	-0.0	-0.0	11650.7529296875	4013.59130859375	-3942.665283203125
0.0055	-0.0	-0.0	-0.0	4.229705333709717	-0.0473804771900177	-741.8236083984375	-6.523526668548584	-5.2993011474609375	-25.83721923828125	-34.64680099487305	16.194534301757812	75.20722198486328	-0.0	-0.0	-0.0	11743.6201171875	3810.10888671875	-4005.57666015625
0.006	-0.0	-0.0	-0.0	3.5841293334960938	0.4194456934928894	-740.8259887695312	-6.387176513671875	-5.600842952728272	-26.41559600830078	-34.72603988647461	16.024904251098633	75.43155670166016	-0.0	-0.0	-0.0	11598.083984375	3783.753662109375	-3897.048828125
0.006500000000000001	-0.0	-0.0	-0.0	3.6472229957580566	0.4877412319183349	-741.4699096679688	-6.653308868408203	-5.839823722839356	-25.69291877746582	-34.69974899291992	16.284503936767578	75.06399536132812	-0.0	-0.0	-0.0	11816.7255859375	3820.049560546875	-3920.281494140625
0.007	-0.0	-0.0	-0.0	3.726251363754273	0.204542338848114	-742.4884033203125	-6.679370403289795	-5.247406959533691	-25.754356384277344	-34.94535446166992	16.004514694213867	75.41539001464844	-0.0	-0.0	-0.0	11690.654296875	3849.593505859375	-3888.55224609375
0.0075	-0.0	-0.0	-0.0	3.448577404022217	0.5186744928359985	-742.6096801757812	-6.653308868408203	-5.5382914543151855	-26.08368682861328	-34.9086799621582	16.02459144592285	74.40185546875	-0.0	-0.0	-0.0	11679.7451171875	3738.149169921875	-3925.283935546875
0.008	-0.0	-0.0	-0.0	3.191382646560669	0.168172001838684	-742.31982421875	-6.429099082946777	-5.335598468780518	-25.385236740112305	-34.83571243286133	15.98789882659912	76.23371124267578	-0.0	-0.0	-0.0	11640.9091796875	3996.72998046875	-3886.634765625
0.0085	-0.0	-0.0	-0.0	3.6176910400390634	0.2146215885877609	-742.2401123046875	-6.376957893371582	-5.5483903884887695	-26.718936920166016	-34.84535217285156	16.131298065185547	76.58377838134766	-0.0	-0.0	-0.0	11766.2431640625	3818.710205078125	-3939.095947265625
0.009000000000000001	-0.0	-0.0	-0.0	3.8988211154937744	-0.1353036761283874	-742.6591186523438	-6.465766429901123	-5.40777587890625	-26.432416915893555	-34.9516487121582	16.14842987060547	75.31258392333984	-0.0	-0.0	-0.0	11513.71484375	3971.107177734375	-3909.48095703125
0.0095	-0.0	-0.0	-0.0	3.879225492477417	0.2478486895561218	-742.8422241210938	-6.298465728759766	-5.439857006072998	-26.353445053100582	-35.13052749633789	16.32086753845215	75.84296417236328	-0.0	-0.0	-0.0	11662.4248046875	3980.361572265625	-3879.729736328125
0.01	-0.0	-0.0	-0.0	4.354467391967773	0.2409005463123321	-745.3529052734375	-6.351004600524902	-5.439931392669678	-25.81177520751953	-34.70049285888672	16.194534301757812	76.2303237915039	-0.0	-0.0	-0.0	11568.99609375	3652.02978515625	-3933.6474609375
0.0105	-0.0	-0.0	-0.0	4.414865016937256	-0.2483000457286834	-744.0828247070312	-6.245851993560791	-5.168343544006348	-25.138916015625	-35.067718505859375	15.915291786193848	75.76925659179688	-0.0	-0.0	-0.0	11560.73046875	3866.6669921875	-3731.353271484375
0.011	-0.0	-0.0	-0.0	4.826828956604004	-0.1611544489860534	-743.969970703125	-6.439851760864258	-5.325523376464844	-25.83721923828125	-34.82610321044922	16.005355834960938	76.19265747070312	-0.0	-0.0	-0.0	11278.91796875	3576.187744140625	-3770.023193359375
0.0115	-0.0	-0.0	-0.0	5.37132740020752	-0.6425927877426147	-743.586181640625	-6.173794269561768	-5.308844566345215	-26.016481399536133	-34.65629577636719	16.059364318847656	76.96363830566406	-0.0	-0.0	-0.0	11370.818359375	3935.376953125	-3802.736328125
0.012	-0.0	-0.0	-0.0	5.432605743408203	-0.8021736145019531	-744.5357666015625	-5.845438957214356	-5.103794574737549	-25.458681106567383	-34.81721496582031	16.49142837524414	75.55997467041016	-0.0	-0.0	-0.0	11173.498046875	3824.574462890625	-3760.786865234375
0.0125	-0.0	-0.0	-0.0	5.530243873596191	-0.8204840421676636	-743.7969970703125	-6.25499439239502	-5.024975776672363	-23.705307006835938	-35.01400375366211	16.07755470275879	75.17424774169922	-0.0	-0.0	-0.0	11299.9091796875	3639.3583984375	-3785.041748046875
0.013000000000000001	-0.0	-0.0	-0.0	5.798683166503906	-0.7845199704170227	-744.1143188476562	-6.041622638702393	-5.573514461517334	-24.508249282836918	-34.9420280456543	16.032817840576172	74.64730072021484	-0.0	-0.0	-0.0	11343.5732421875	3761.564697265625	-3713.717529296875
